# xmcd
#
# Track frame offsets:
#	150
#	15764
#	30162
#	49148
#	68655
#	83635
#	100531
#	115004
#	129928
#	145949
#	156155
#	173284
#	191373
#
# Disc length: 2797 seconds
#
# Revision: 1
# Processed by: cddbd v1.5.2PL0 Copyright (c) Steve Scherf et al.
# Submitted via: audiograbber 1.80
#
DISCID=850aeb0d
DTITLE=Danny June Smith - Für dich ganz allein
DYEAR=1900
DGENRE=
TTITLE0=Nur einen Herzschlag entfernt
TTITLE1=Mit Cowboyhut und Stiefeln
TTITLE2=Märchen (Prinzen sind töricht)
TTITLE3=Dann traf ich Dich
TTITLE4=Für Dich ganz allein (Made in June)
TTITLE5=Ich weiss, Du denkst nicht mehr daran
TTITLE6=Zwischen den Welten
TTITLE7=Für den Schmetterling
TTITLE8=Das ist die andere Seite
TTITLE9=Du Blödmann
TTITLE10=Erst zum Schluß
TTITLE11=Gib' Dein Herz nicht für mich her
TTITLE12=Weisst Du...
EXTD=
EXTT0=\n
EXTT1=
EXTT2=
EXTT3=
EXTT4=
EXTT5=
EXTT6=
EXTT7=
EXTT8=
EXTT9=
EXTT10=
EXTT11=
EXTT12=
PLAYORDER=
